HIERARCHY
ROOT pelvis
{
  OFFSET 0 100 0
  CHANNELS 6 Xposition Yposition Zposition Zrotation Xrotation Yrotation
  JOINT pelvis_right_femur
  {
    OFFSET -10.78128 -3.44521 -0.5502486
    CHANNELS 3 Zrotation Xrotation Yrotation
    JOINT right_femur_tibia
    {
      OFFSET -0.8047443 -44.0398 -0.1307829
      CHANNELS 3 Zrotation Xrotation Yrotation
      JOINT right_tibia_foot
      {
        OFFSET 3.006224 -47.83518 -5
        CHANNELS 3 Zrotation Xrotation Yrotation
        End Site
        {
          OFFSET 0 -5 15
        }
      }
    }
  }
  JOINT pelvis_left_femur
  {
    OFFSET 10.78128 -3.44521 -0.5502486
    CHANNELS 3 Zrotation Xrotation Yrotation
    JOINT left_femur_tibia
    {
      OFFSET 0.8047443 -44.0398 -0.1307829
      CHANNELS 3 Zrotation Xrotation Yrotation
      JOINT left_tibia_foot
      {
        OFFSET -4.370144 -48.10324 -4.275266
        CHANNELS 3 Zrotation Xrotation Yrotation
        End Site
        {
          OFFSET 0 -5 15
        }
      }
    }
  }
  JOINT pelvis_spine1
  {
    OFFSET 0 6.468898 -3.129235
    CHANNELS 3 Zrotation Xrotation Yrotation
    JOINT spine1
    {
      OFFSET 0 23.15396 4.99043
      CHANNELS 3 Zrotation Xrotation Yrotation
      JOINT spine2
      {
        OFFSET 0 20.79997 -5.064912
        CHANNELS 3 Zrotation Xrotation Yrotation
        JOINT neck
        {
          OFFSET 0 14.38658 9.616178
          CHANNELS 3 Zrotation Xrotation Yrotation
          End Site
          {
            OFFSET 0 20 0
          }
        }
      }
      JOINT right_manubrium
      {
        OFFSET -5.722621 16.35077 3.967754
        CHANNELS 3 Zrotation Xrotation Yrotation
        JOINT right_clavicle
        {
          OFFSET -13.16364 1.694482 -4.693211
          CHANNELS 3 Zrotation Xrotation Yrotation
          JOINT right_humerus
          {
            OFFSET -28.5034 -0.3100689 -2.792744
            CHANNELS 3 Zrotation Xrotation Yrotation
            JOINT right_radius
            {
              OFFSET -25.15693 0.02248979 -1.271978
              CHANNELS 3 Zrotation Xrotation Yrotation
              End Site
              {
                OFFSET -15 0 0
              }
            }
          }
        }
      }
      JOINT left_manubrium
      {
        OFFSET 5.722621 16.35077 3.967754
        CHANNELS 3 Zrotation Xrotation Yrotation
        JOINT left_clavicle
        {
          OFFSET 13.16364 1.694482 -4.693211
          CHANNELS 3 Zrotation Xrotation Yrotation
          JOINT left_humerus
          {
            OFFSET 29.39168 -1.063119 -2.237045
            CHANNELS 3 Zrotation Xrotation Yrotation
            JOINT left_radius
            {
              OFFSET 24.59957 -0.9528479 0.9047498
              CHANNELS 3 Zrotation Xrotation Yrotation
              End Site
              {
                OFFSET 15 -0 -0
              }
            }
          }
        }
      }
    }
  }
}
MOTION
Frames: 19
Frame Time: 0.0416666666667
31.56505 100.7074 262.0108 -0.3219941 -2.227887 0.3952574 3.895603 10.02636 9.309455 -0 25.98445 -0 10.2889 -15.66161 -2.718238 3.423399 -31.86239 -1.380426 -0 27.07152 -0 -12.93005 -9.391838 17.36356 1.646665 -3.227676 9.453702 -2.581992 11.91325 -2.336461 2.097581 18.20241 4.741299 2.137097 -19.27603 5.91997 2.151626 -22.86449 11.1541 79.23404 19.16242 -4.927737 -0 0 24.61187 -26.56636 12.19349 13.54413 0.8723717 -14.94381 -3.221081 -90.18526 20.92484 26.84546 0 0 -12.00299 -4.612387 3.819185 18.76517
33.03513 100.1832 269.8594 -0.3528742 -2.372736 -0.1382038 3.109527 11.476 9.072525 -0 31.45897 -0 11.85004 -12.85944 -3.419158 2.180446 -31.87518 -2.774651 -0 27.47788 -0 -12.78238 -8.555686 17.02806 1.519434 -4.233868 9.620811 -2.490709 11.86288 -2.217318 2.38008 18.27537 4.655935 2.107038 -19.11503 6.194736 1.88437 -22.19658 10.35622 79.44805 18.50167 -5.124122 -0 0 25.30472 -26.8345 11.79227 13.74315 0.7335283 -13.95227 -2.748579 -90.60722 20.96378 27.05334 0 0 -11.71911 -4.855985 3.759932 18.99031
34.42962 100.5314 277.3571 -0.3397976 -2.319326 0.04770673 2.455705 11.34242 8.049354 -0 38.09903 -0 13.29277 -9.743851 -4.63526 0.7716728 -29.0859 -4.11441 -0 29.88756 -0 -12.40753 -8.867435 16.52387 1.170738 -5.131392 9.479528 -2.275237 11.76185 -2.307835 2.609474 18.6629 4.60529 2.069915 -18.76959 6.468313 2.001752 -21.66514 9.741671 79.67762 18.07717 -5.61316 -0 0 25.0479 -26.89255 11.51162 13.70174 0.7079699 -13.58238 -2.579112 -90.22569 21.21909 26.23674 0 0 -11.96993 -4.890687 3.786972 18.92366
35.68848 101.156 284.5248 -0.2823909 -2.049677 1.026981 2.319088 8.460533 7.113085 -0 46.33271 -0 14.00684 -7.225171 -6.377869 -0.7435139 -25.72324 -4.81044 -0 30.73723 -0 -11.6887 -10.66713 16.15066 1.032411 -6.161287 8.961252 -2.21563 11.78398 -2.471921 2.617439 19.11155 4.656713 1.909556 -18.38586 6.711165 2.395312 -20.69034 9.412818 80.10901 17.9055 -6.616379 -0 0 23.93129 -26.67687 11.33358 13.32925 0.6487982 -13.81589 -2.615006 -89.17991 21.64441 24.74864 0 0 -12.35505 -4.720888 3.895927 18.7164
36.89257 102.3371 291.347 -0.2504197 -1.882884 1.631503 2.25546 2.720334 6.033837 -0 53.70276 -0 13.7102 -7.357314 -8.519216 -1.711181 -21.37676 -5.257311 -0 30.30085 -0 -10.98301 -12.61948 15.71794 0.9961391 -7.016028 8.018872 -2.10148 11.79414 -2.862612 2.36227 19.74525 4.947182 1.612779 -17.893 7.065282 3.132294 -19.98352 9.213757 80.68313 18.00211 -7.652656 -0 0 22.33233 -26.16613 11.25125 12.7352 0.3733083 -14.39557 -2.902039 -87.70328 22.19141 22.49545 0 0 -12.77889 -4.421385 4.065755 18.47354
38.00101 103.7514 297.4306 -0.2292047 -1.760401 2.070673 2.875678 -4.738781 5.129503 -0 56.64143 -0 12.70469 -8.340339 -9.724193 -2.226642 -16.12521 -5.446022 -0 28.27866 -0 -10.50301 -14.18098 15.04554 0.8651065 -7.383861 6.795832 -1.883421 11.70783 -3.487149 2.025584 20.50694 5.34905 1.285509 -17.24331 7.498984 3.61575 -19.47663 9.141835 81.37513 18.28757 -8.615268 -0 0 20.83103 -25.52459 11.20338 12.11885 0.2888327 -15.21179 -3.450426 -85.97028 22.78994 19.50577 0 0 -13.4973 -4.060154 4.298317 18.15829
38.97223 105.204 303.4562 -0.1867616 -1.507678 2.978941 3.082768 -12.21811 5.36229 -0 56.31329 -0 11.24661 -8.499038 -10.19974 -2.519672 -11.09943 -5.84867 -0 25.33203 -0 -10.23585 -15.25895 14.21497 0.5143777 -7.874893 5.340788 -1.431331 11.59743 -4.616202 1.733906 21.3085 5.775573 1.006229 -16.47443 7.985205 3.655808 -18.66746 8.782924 82.36329 18.63056 -9.986337 -0 0 19.41862 -24.82837 11.139 11.50975 0.5554269 -16.10797 -4.191809 -84.0094 23.39619 16.02007 0 0 -14.49481 -3.685678 4.584066 17.73371
39.95074 106.016 309.2303 -0.1178883 -1.057473 4.596708 3.180602 -18.74995 5.424287 -0 51.65822 -0 9.649455 -8.215045 -11.10725 -3.031698 -6.146773 -6.108615 -0 22.45032 -0 -10.00936 -16.31834 13.3408 0.09286429 -8.085055 3.955259 -0.9330606 11.46007 -5.995631 1.697479 22.00528 6.011512 0.8775696 -15.66541 8.405579 3.223012 -17.87943 8.210736 83.27129 18.96645 -11.42081 -0 0 18.18166 -24.14904 11.02033 10.93969 0.9626954 -16.9318 -4.827646 -81.99518 23.87014 12.38339 0 0 -15.89185 -3.165926 4.965667 16.98653
40.74304 105.87 315.105 -0.05341585 -0.5489412 6.422172 2.600845 -24.23789 5.392432 -0 43.97937 -0 7.972947 -7.733832 -12.27295 -2.795741 -1.824022 -6.498506 -0 19.59083 -0 -9.73825 -17.70858 12.10812 -0.5069202 -8.533264 2.76765 -0.3708037 10.79473 -7.408134 1.80178 22.18491 6.269938 0.7859722 -15.35245 8.972737 2.647671 -16.80251 7.647377 84.22606 19.28994 -13.08857 -0 0 16.71258 -23.43867 10.86834 10.25854 1.580762 -17.74374 -5.599276 -79.79207 24.26744 8.620091 0 0 -17.53261 -2.554757 5.425297 16.02012
41.51942 104.9961 320.8596 -0.005470495 -0.06522038 8.15841 1.651576 -29.03326 5.357068 -0 34.45683 -0 6.160383 -7.210841 -13.42029 -2.618479 2.161214 -6.620725 -0 17.8598 -0 -9.454208 -19.28449 10.96855 -0.9852292 -8.637053 1.842031 0.157713 10.21698 -8.438702 1.95765 22.37771 6.311196 0.7286074 -15.12683 9.30322 2.120404 -15.90169 7.280377 84.99486 19.6334 -14.57586 -0 0 14.97379 -22.66825 10.70396 9.381333 2.275384 -18.8188 -6.22918 -77.31819 24.54228 4.650065 0 0 -19.37457 -1.78668 5.968122 14.83732
42.15676 103.5772 326.6055 0.01965357 0.2609929 9.330574 0.3695395 -32.00202 4.764827 -0 24.7686 -0 3.949698 -7.753564 -13.94825 -2.311258 5.620825 -6.577663 -0 17.46313 -0 -9.213514 -20.77812 10.20634 -1.169549 -8.322782 1.414734 0.4026991 9.760616 -8.86207 2.182542 22.33344 6.106026 0.6967643 -15.20707 9.371677 1.711146 -14.84402 7.135666 85.8474 19.9779 -16.10752 -0 0 12.72399 -21.73588 10.55004 8.275982 2.854821 -20.09686 -6.356632 -74.90353 24.52312 1.006702 0 0 -21.33426 -0.8036347 6.549639 13.51005
42.75014 102.3362 332.4746 0.0247578 0.3319908 9.587252 0.6191075 -34.03622 4.156058 -0 19.05479 -0 1.477187 -8.226903 -14.51598 -2.129868 8.585884 -6.516162 -0 18.58938 -0 -9.143368 -21.55495 10.00736 -0.9338981 -7.761098 1.559604 0.4851414 9.502918 -8.648486 2.281473 22.29985 5.786299 0.5997663 -15.49698 9.190538 1.744242 -14.05752 7.402583 86.59426 20.39139 -17.29973 -0 0 10.13726 -20.68232 10.44647 7.009079 3.095758 -21.31618 -6.109873 -73.03932 24.30412 -1.816488 0 0 -23.01205 0.2635558 7.079692 12.20292
43.4206 101.2457 338.8403 0.02753612 0.3684837 9.720106 1.053792 -34.56808 4.492947 -0 17.99039 -0 -0.7518232 -8.420439 -14.51858 -1.97032 10.97942 -6.474105 -0 21.31159 -0 -9.282452 -21.09886 10.32148 -0.3900924 -7.71048 1.814252 0.4977361 9.558025 -8.191506 2.213202 22.44429 5.432335 0.4351721 -15.75445 8.821901 1.951857 -13.2672 7.781532 87.44386 20.80434 -18.29116 -0 0 7.537463 -19.51035 10.3813 5.711788 3.135643 -22.17105 -5.611142 -72.17567 24.14415 -3.559172 0 0 -24.30488 1.270822 7.518234 11.05356
43.76331 100.4885 346.1452 0.0398451 0.5745404 10.46385 2.506805 -33.79256 6.121631 -0 20.87876 -0 -2.419234 -7.469194 -13.63386 -1.453795 12.31661 -6.682241 -0 25.96976 -0 -9.604342 -19.04492 11.31058 -0.1015991 -8.468095 1.978214 0.411571 9.761111 -7.784596 2.116594 22.85778 4.971521 0.286878 -15.85411 8.281738 2.125632 -12.20109 7.684878 88.67391 21.08327 -19.23386 -0 0 5.303604 -18.32201 10.32768 4.522747 3.254512 -22.29853 -4.570419 -72.42038 24.17725 -3.91405 0 0 -25.0733 2.096359 7.849065 10.16334
44.10724 100.412 353.6952 0.04458461 0.6623202 10.7823 3.000354 -32.5101 8.10524 -0 25.86691 -0 -4.085859 -6.650625 -12.30421 -1.266815 12.04686 -6.694202 -0 33.15296 -0 -9.928683 -15.65766 13.16196 0.01465617 -9.981719 2.071469 0.4328176 9.713168 -7.687705 2.064768 23.31998 4.649416 0.159578 -16.14089 7.959605 2.260387 -11.48172 7.318757 89.6668 21.31453 -19.79368 -0 0 3.745605 -17.28959 10.21873 3.561655 3.205066 -21.48701 -3.664402 -73.61882 24.42944 -2.811631 0 0 -24.9105 2.634634 8.058452 9.66039
44.5443 100.9551 360.9881 0.02678659 0.3428465 9.631288 4.235345 -29.62531 9.187971 -0 29.14489 -0 -5.847415 -7.446729 -11.53102 -0.8248582 8.521063 -6.526876 -0 41.88359 -0 -9.380191 -13.23095 16.03158 0.3921187 -10.84519 2.799242 0.5755532 9.807293 -7.127072 2.178685 23.82292 4.099131 0.1139729 -16.63015 7.483351 2.33846 -11.454 7.538999 89.93059 21.64307 -19.30097 -0 0 3.080304 -16.56853 9.999749 2.939889 3.018412 -20.32681 -2.938948 -75.55164 24.89431 -0.786804 0 0 -23.91537 2.832206 8.179043 9.547193
44.88491 101.8401 367.8537 0.005795199 0.0662647 8.632253 5.122453 -25.4136 9.621827 -0 30.07502 -0 -7.415066 -9.214041 -10.99683 -2.089926 3.119435 -5.16924 -0 51.5484 -0 -9.048261 -10.62712 18.94229 0.6463657 -11.27212 3.855924 0.7241748 10.06103 -6.441851 2.353348 24.41448 3.538995 0.1131853 -17.09802 7.035318 2.455805 -11.56299 7.959602 89.84469 21.94037 -18.31969 -0 0 3.015128 -16.49261 9.613971 2.651564 2.639749 -19.33871 -2.571602 -77.92144 25.51776 1.616089 0 0 -22.21455 2.651442 8.24745 9.78167
45.31976 103.1738 374.1419 -0.02748353 -0.2779863 7.386119 5.465714 -19.96405 9.556754 -0 28.64764 -0 -8.474501 -10.91765 -10.46041 -2.146296 -3.781626 -4.702261 -0 58.21793 -0 -8.246118 -8.901842 21.47999 0.8624299 -11.15362 5.130022 0.7726134 10.43193 -5.582983 2.747105 24.85024 2.88 0.2254649 -17.63132 6.641965 2.491647 -11.31534 8.506897 89.93749 22.10227 -17.27116 -0 0 3.216555 -16.71677 9.142226 2.464768 2.163475 -18.59245 -2.415338 -80.51948 26.13939 4.340052 0 0 -19.78409 2.182921 8.23306 10.34604
45.80951 104.7242 380.2588 -0.04980044 -0.472416 6.680816 5.438079 -15.20229 9.383545 -0 26.86575 -0 -9.001604 -12.13389 -9.956618 -1.90105 -10.51051 -4.142699 -0 60.67623 -0 -7.239487 -7.667934 23.12757 1.097744 -11.09873 6.252166 0.6599975 10.31838 -4.626117 3.062909 25.42011 2.294666 0.2929278 -17.93805 6.281577 2.359394 -12.01662 9.10721 89.33211 22.38875 -15.29787 -0 0 4.066078 -17.20953 8.682774 2.604605 1.793526 -17.75808 -2.274684 -83.35693 26.64171 7.57239 0 0 -16.80457 1.530906 8.120132 11.12987
